<?xml version="1.0" encoding="utf-8"?>
<!-- Generator: Adobe Illustrator 26.0.1, SVG Export Plug-In . SVG Version: 6.00 Build 0)  -->
<svg version="1.1" id="Layer_1" xmlns="http://www.w3.org/2000/svg" xmlns:xlink="http://www.w3.org/1999/xlink" x="0px" y="0px"
	 viewBox="0 0 100.6 124.2" style="enable-background:new 0 0 100.6 124.2;" xml:space="preserve">
<style type="text/css">
	.st0{display:none;fill:#AF7F51;}
	.st1{display:none;}
	.st2{fill:#ffff;}
</style>
<rect x="-197.2" y="-34.5" class="st0" width="169" height="48"/>
<g class="st1">
	
		<text transform="matrix(0.9548 -0.2973 0.2973 0.9548 134.8792 91.6139)" style="display:inline;fill:#FFFFFF; font-family:'Rakkas-Regular'; font-size:72px;">جــــن</text>
	
		<text transform="matrix(1 0 0 1 190.9006 114.8963)" style="display:inline;fill:#FFFFFF; font-family:'ArefRuqaa-Bold'; font-size:24px;">Nasj</text>
</g>
<g>
	<g>
		<path class="st2" d="M17.5,91.8l-5.1,6.3c2.4,2.2,4.7,3.7,6.7,4.4l4.6-5.6c-1.2-0.8-2.8-2.1-4.7-3.8L17.5,91.8z"/>
		<path class="st2" d="M99.4,15.2l-2.2,0.6c0.2,1.9,0.4,4.2,0.5,6.9L9.9,61.9c-3.2,1.9-5.9,3.8-8,5.7C0.6,72.6,0,78.5,0,85.2
			c2.8-0.8,6-1.3,9.8-1.7c-3.6,5-6.2,10.2-7.9,15.6c-1.7,5.4-2,9.8-0.9,13.1c1,3.3,3.1,5.4,6.1,6.3c3.1,0.9,6.6,0.8,10.7-0.5
			c2.9-0.9,5.5-2.2,7.8-3.9c2.3-1.7,4.2-3.5,5.6-5.4c1.4-2,2.3-3.8,2.7-5.6c-0.7,0.3-1.8,0.6-3.3,1.1c-3.9,1.2-7.8,2-11.6,2.4
			c-3.8,0.4-7.1,0.2-9.8-0.5c-2.7-0.7-4.3-2-4.9-3.9c-0.3-1,0.3-2.8,1.7-5.3c1.4-2.5,3.3-5.2,5.7-8c2.3-2.8,4.5-5.1,6.6-6.8l0.7-9.2
			c-1.4-0.1-3.2,0-5.5,0.3c-2.2,0.2-4.4,0.6-6.6,1.1l93-41.4C100.8,27.4,100.6,21.5,99.4,15.2z"/>
		<path class="st2" d="M98.1,5.1c-1.2-0.8-2.8-2.1-4.7-3.8L91.9,0l-5.1,6.3c2.4,2.2,4.7,3.7,6.7,4.4L98.1,5.1z"/>
	</g>
	<g>
		<path class="st2" d="M49.8,102.6v13.8l-2.3,1l-0.4-0.2c0.4-6.8,0.5-12,0.5-15.6c0-0.6,0-1.1-0.1-1.5c-0.1-0.2-0.2-0.4-0.4-0.6
			c-0.2-0.2-0.5-0.3-0.8-0.5c-0.3-0.1-0.6-0.2-0.8-0.3c-0.2-0.1-0.5-0.1-0.8-0.2v-0.6l0.2-0.2h5.6c3.3,4.1,7.4,8.7,12.3,13.8
			l-0.1-0.1V98.1l2.3-0.8l0.6,0.4c-0.5,5.9-0.8,10.9-0.8,15c0,1.6,0.1,3.1,0.2,4.4h-2.1l-13.3-14.8c-0.1-0.1-0.2-0.2-0.2-0.2
			s-0.1,0-0.1,0.1C49.2,102.4,49.4,102.5,49.8,102.6z"/>
		<path class="st2" d="M80.1,103.5l0.4,0.3c-0.3,3.1-0.5,5.7-0.5,7.7c0,0.8,0,1.4,0,1.7c0,0.3,0,0.7,0.1,1.1
			c0.1,0.4,0.1,0.7,0.3,0.8c0.1,0.1,0.3,0.2,0.5,0.2c0.4,0,1.1-0.4,2-1.2l0.5,0.6c-0.3,0.4-0.6,0.7-0.9,1c-0.3,0.3-0.7,0.6-1.1,0.9
			c-0.4,0.3-0.8,0.6-1.3,0.7c-0.5,0.2-0.9,0.3-1.3,0.3c-1,0-1.6-0.6-1.7-1.9l-0.4-0.1c-1.8,1.4-3.6,2.1-5.2,2.1
			c-0.7,0-1.4-0.2-1.9-0.6c-0.5-0.4-1-0.9-1.2-1.5c-0.3-0.6-0.5-1.2-0.6-1.9c-0.1-0.6-0.2-1.3-0.2-1.9c0-2.8,0.6-5,1.7-6.4
			c1.1-1.5,2.8-2.2,5.1-2.2c1.4,0,2.8,0.4,4.1,1.2L80.1,103.5z M77.2,108c0-2.4-0.9-3.6-2.6-3.6c-0.5,0-1,0.1-1.4,0.3
			c-0.4,0.2-0.8,0.5-1,0.8c-0.3,0.3-0.5,0.7-0.7,1.1c-0.2,0.4-0.3,0.9-0.4,1.4c-0.1,0.5-0.2,1-0.2,1.4c0,0.4-0.1,0.9-0.1,1.4
			c0,0.5,0,1.1,0.1,1.6c0.1,0.5,0.2,1,0.4,1.5s0.5,0.9,0.9,1.2c0.4,0.3,0.9,0.4,1.4,0.4c1.1,0,2.2-0.5,3.3-1.5
			C77.1,112.9,77.2,110.9,77.2,108z"/>
		<path class="st2" d="M93.1,105.4l-2,2.1l-0.4-0.1c-0.1-0.3-0.1-0.7-0.3-1s-0.3-0.6-0.5-0.9c-0.2-0.3-0.5-0.5-0.8-0.7
			s-0.7-0.3-1.1-0.3c-0.6,0-1.1,0.2-1.4,0.5c-0.3,0.4-0.5,0.9-0.5,1.5c0,0.2,0,0.4,0.1,0.7c0.1,0.2,0.2,0.4,0.3,0.6
			c0.1,0.2,0.3,0.3,0.5,0.5c0.2,0.2,0.4,0.3,0.6,0.4c0.2,0.1,0.4,0.2,0.7,0.4c0.3,0.2,0.5,0.3,0.7,0.3c0.1,0.1,0.4,0.2,0.7,0.3
			c0.7,0.3,1.3,0.6,1.7,0.8c0.4,0.2,0.8,0.5,1.1,0.8c0.3,0.3,0.6,0.6,0.7,0.9c0.1,0.3,0.2,0.7,0.2,1.2c0,0.7-0.2,1.3-0.6,1.9
			c-0.4,0.6-0.9,1-1.5,1.4c-0.6,0.3-1.3,0.6-2,0.8s-1.4,0.3-2.1,0.3c-2.1,0-3.7-0.6-4.8-1.9l1.8-2.6l0.4,0c0.1,0.5,0.3,0.9,0.4,1.2
			c0.1,0.3,0.3,0.7,0.6,1.1c0.2,0.4,0.6,0.7,0.9,0.8c0.4,0.2,0.8,0.3,1.3,0.3c0.6,0,1.2-0.2,1.6-0.6c0.5-0.4,0.7-0.9,0.7-1.5
			c0-0.5-0.2-0.9-0.6-1.3c-0.2-0.2-0.5-0.4-0.9-0.6c-0.4-0.2-0.8-0.4-1.3-0.6c-0.4-0.2-0.9-0.4-1.4-0.7s-0.9-0.6-1.3-0.9
			s-0.7-0.7-0.9-1.1c-0.2-0.4-0.4-0.9-0.4-1.4c0-0.8,0.2-1.5,0.5-2.1c0.3-0.6,0.7-1.1,1.2-1.4c0.5-0.4,1.1-0.6,1.8-0.8
			c0.7-0.2,1.4-0.3,2.1-0.3c1,0,1.8,0.1,2.6,0.4C92.2,104.1,92.8,104.6,93.1,105.4z"/>
		<path class="st2" d="M94.4,106.4l-0.5-0.6c0.4-0.3,0.7-0.5,0.8-0.6s0.4-0.3,0.8-0.6c0.4-0.3,0.7-0.5,1-0.6
			c0.3-0.1,0.5-0.2,0.9-0.3c0.3-0.1,0.7-0.2,0.9-0.2c0.4,0,0.7,0.1,1,0.2c0.3,0.1,0.5,0.3,0.6,0.6c0.1,0.3,0.2,0.6,0.3,1
			c0.1,0.4,0.1,0.9,0.1,1.4c0,0.5,0,1.1,0,1.8c0,0.7,0,1.2,0,1.6c0,3.3,0,5.4-0.1,6.4c-0.3,2.4-2.5,5-6.6,7.7l-0.8-0.5
			c0.7-0.5,1.2-0.9,1.7-1.3c0.4-0.4,0.9-0.9,1.3-1.4c0.5-0.5,0.8-1.1,1-1.7c0.2-0.6,0.4-1.2,0.4-1.9c0.1-0.9,0.1-2.1,0.1-3.5
			c0-0.5,0-1.1,0-1.8s0-1.3,0-1.7s0-1,0-1.5s0-1-0.1-1.3s-0.1-0.7-0.2-1c-0.1-0.3-0.2-0.6-0.3-0.7c-0.1-0.1-0.3-0.2-0.5-0.2
			C95.8,105.5,95.1,105.8,94.4,106.4z M97.5,101.2c-0.4-0.4-0.5-0.8-0.5-1.3s0.2-0.9,0.5-1.3c0.4-0.4,0.8-0.5,1.3-0.5
			c0.5,0,0.9,0.2,1.3,0.5c0.4,0.4,0.5,0.8,0.5,1.3s-0.2,0.9-0.5,1.3c-0.4,0.4-0.8,0.5-1.3,0.5C98.3,101.7,97.8,101.6,97.5,101.2z"/>
	</g>
</g>
</svg>
